PathFileType	4	(X/Y/Z)	./resultDataOpenSim/trcMotMarkerGrf/sub10/qtm-12-07.trc
DataRate	CameraRate	NumFrames	NumMarkers	Units	OrigDataRate	OrigDataStartFrame	OrigNumFrames
250.000000	250.000000	7	24	m	250.000000	315	503
Frame#	Time	L.Toe.Tip			R.Toe.Tip			L.Ankle.Lat			R.Ankle.Lat			L.Ankle.Med			R.Ankle.Med			L.Heel			R.Heel			L.Knee.Lat			R.Knee.Lat			L.Knee.Med			R.Knee.Med			L.Thigh.Upper			R.Thigh.Upper			L.ASIS			R.ASIS			V.Sacral			L.Acromium			R.Acromium			C7			L.Elbow			R.Elbow			L.Wrist.Lat			R.Wrist.Lat
		X1	Y1	Z1	X2	Y2	Z2	X3	Y3	Z3	X4	Y4	Z4	X5	Y5	Z5	X6	Y6	Z6	X7	Y7	Z7	X8	Y8	Z8	X9	Y9	Z9	X10	Y10	Z10	X11	Y11	Z11	X12	Y12	Z12	X13	Y13	Z13	X14	Y14	Z14	X15	Y15	Z15	X16	Y16	Z16	X17	Y17	Z17	X18	Y18	Z18	X19	Y19	Z19	X20	Y20	Z20	X21	Y21	Z21	X22	Y22	Z22	X23	Y23	Z23	X24	Y24	Z24

315	1.256	0.084170989	0.029523876	-0.078114821	0.87314108	0.038905276	0.078773363	0.067563964	0.16750712	-0.10488061	0.73472685	0.054122599	0.13656872	0.10721124	0.15982193	-0.030570381	0.74225463	0.078895058	0.049877925	0.02923332	0.20841697	-0.04813917	0.68021185	0.029609047	0.097999038	0.34960808	0.42688458	-0.13932614	0.73114419	0.45749705	0.15036849	0.3812646	0.3727878	-0.03362913	0.70057677	0.45847205	0.025057535	0.45622079	0.78831867	-0.15262502	0.60128237	0.8472517	0.21329606	0.54803069	0.89220268	-0.11230383	0.63158124	0.92245736	0.11545926	0.3978347	0.92132115	0.067923458	0.5008242	1.383449	-0.12614616	0.48265619	1.3747602	0.19732753	0.40743143	1.4008173	0.026515954	0.51343442	1.0369752	-0.21133629	0.31574976	1.0796259	0.19381768	0.7558104	0.98167147	-0.23148193	0.30238689	0.85862905	0.29423846
316	1.26	0.087819524	0.03178015	-0.078766717	0.87317941	0.038853507	0.078830439	0.075558151	0.17113812	-0.10496427	0.73479459	0.054090344	0.1366188	0.11525534	0.16245444	-0.030751655	0.74237065	0.079061822	0.05001215	0.038930669	0.21309139	-0.047997531	0.68022083	0.029594559	0.098103566	0.36018759	0.42594956	-0.13975442	0.73557255	0.45776351	0.1502433	0.39249788	0.37117255	-0.034214631	0.70626609	0.46014958	0.024695996	0.46419051	0.78726166	-0.15241258	0.60741607	0.84902679	0.2138514	0.55451548	0.89168803	-0.11148903	0.63783454	0.92321045	0.11599202	0.40399099	0.92175655	0.067882551	0.50684594	1.3840881	-0.12567738	0.48905373	1.3752201	0.19802078	0.41338233	1.4015429	0.027505422	0.51780625	1.0375379	-0.21020615	0.32378975	1.0791508	0.19481135	0.75994183	0.9800804	-0.23081633	0.31133778	0.85792313	0.29475798
317	1.264	0.091919405	0.034236152	-0.079642224	0.8732062	0.038808967	0.0788833	0.083858847	0.17477431	-0.10502743	0.73482686	0.054049774	0.13669203	0.12351132	0.16511229	-0.030853905	0.74240554	0.079214442	0.050163396	0.048822775	0.21757933	-0.047800101	0.68022836	0.029579087	0.098221961	0.37089076	0.42503639	-0.14013823	0.73942271	0.45788835	0.15033232	0.40403	0.36991175	-0.03474904	0.71178754	0.46155364	0.024439754	0.47205525	0.78640182	-0.15224203	0.61337607	0.85070549	0.21442931	0.5607565	0.89126291	-0.11074231	0.64411083	0.92405366	0.11648466	0.4100582	0.92220954	0.067701177	0.51287754	1.3847692	-0.12524096	0.49541434	1.3757432	0.1986656	0.41936315	1.4024194	0.028350292	0.52218421	1.0381241	-0.20919541	0.33185234	1.078653	0.19588943	0.76395013	0.97842846	-0.23019627	0.32050905	0.8572213	0.29536654
318	1.268	0.096559093	0.036944807	-0.080712027	0.87322284	0.038770193	0.078929295	0.092418161	0.17837043	-0.10504892	0.73482232	0.05401977	0.13678315	0.13195795	0.16776725	-0.030879283	0.74241571	0.079352924	0.050325082	0.058803218	0.22187271	-0.047554513	0.68023472	0.029565802	0.098353596	0.38176588	0.42416852	-0.14049759	0.74283077	0.45792255	0.15065681	0.41587191	0.36906535	-0.035286259	0.71702171	0.46267861	0.024341471	0.47979521	0.78575372	-0.15206649	0.61917964	0.85228076	0.21502648	0.56706709	0.89108511	-0.1099148	0.65031168	0.92500637	0.11699643	0.41601416	0.92268487	0.067447868	0.51891019	1.3855025	-0.12483091	0.50173044	1.376335	0.19925564	0.42539046	1.403397	0.029008124	0.5266187	1.0387449	-0.20831292	0.33994461	1.078151	0.19704547	0.76783349	0.97672083	-0.22961574	0.32990923	0.85653789	0.29607255
319	1.272	0.10184448	0.039941553	-0.081925523	0.87322298	0.038738278	0.078969593	0.10117546	0.18191743	-0.1050038	0.73480961	0.053983759	0.13688628	0.14057954	0.17041254	-0.030835663	0.74244376	0.079463191	0.05048375	0.068787026	0.2259755	-0.047247429	0.68023436	0.02955558	0.098496237	0.39288021	0.42336812	-0.14087734	0.7458604	0.45788705	0.15117508	0.42783595	0.36859016	-0.035749839	0.72192537	0.46352772	0.024413319	0.48739537	0.78532864	-0.15184152	0.62481716	0.8537495	0.21563216	0.57373918	0.89127793	-0.10892368	0.65638967	0.92608167	0.11755857	0.42181303	0.92320717	0.067178177	0.52493601	1.3862966	-0.1244393	0.50799553	1.3769957	0.19979078	0.43144746	1.4044137	0.029501334	0.53106818	1.0394152	-0.20750197	0.3480776	1.0776743	0.19825811	0.77158727	0.97494376	-0.22905937	0.33951041	0.85587338	0.29684043
320	1.276	0.10789208	0.043233534	-0.083227488	0.87319883	0.038715654	0.079004268	0.11008023	0.18543666	-0.10487848	0.7348071	0.053923613	0.13699691	0.14937425	0.17306293	-0.030734216	0.74250384	0.079531904	0.050627308	0.078728948	0.22989749	-0.0468448	0.68021953	0.029552947	0.098644226	0.4042414	0.42265354	-0.14129884	0.74848604	0.45776365	0.15178891	0.43969216	0.36839651	-0.036027252	0.72650443	0.46411035	0.024620627	0.49484808	0.78512264	-0.15154486	0.63028499	0.85512254	0.21624121	0.58066956	0.8917977	-0.10787655	0.66234214	0.92728256	0.11817992	0.42744113	0.92378772	0.066906526	0.53094307	1.3871507	-0.12406273	0.51420715	1.3777213	0.20027318	0.43750936	1.4054405	0.029858283	0.53546782	1.0401549	-0.2067226	0.35624236	1.0772444	0.19949364	0.77520202	0.97309234	-0.22851407	0.34928868	0.8552278	0.29763851
321	1.28	0.11478344	0.046774235	-0.08456601	0.87314742	0.038700802	0.079023937	0.11911207	0.18895434	-0.10467728	0.73481541	0.053839295	0.13710699	0.15835446	0.17573906	-0.030587729	0.74259266	0.079559015	0.050748488	0.08861932	0.23364584	-0.046321319	0.68018566	0.029562861	0.098787345	0.41580221	0.42204592	-0.14174223	0.7507405	0.45752698	0.15241782	0.45135367	0.36843122	-0.036088862	0.73074882	0.46443295	0.024909617	0.50214195	0.78511426	-0.15117229	0.63560285	0.85642004	0.21685134	0.58744721	0.89250081	-0.10697229	0.66818738	0.92860255	0.11886034	0.43294601	0.92441409	0.066620346	0.53692362	1.3880584	-0.12369906	0.5203702	1.378507	0.20070759	0.44355012	1.4064876	0.030116374	0.53977908	1.0409853	-0.20597991	0.36441007	1.0768621	0.20072048	0.7786785	0.97120167	-0.2279829	0.35923799	0.8546071	0.2984534
